HIERARCHY
ROOT base
{
	OFFSET 0.000000 0.000000 0.000000
	CHANNELS 6 Xposition Yposition Zposition Xrotation Yrotation Zrotation
	JOINT torso
	{
		OFFSET 0.000000 0.000000 0.417233
		CHANNELS 3 Xrotation Yrotation Zrotation
		JOINT head
		{
			OFFSET 0.000000 0.000000 0.313722
			CHANNELS 3 Xrotation Yrotation Zrotation
			End Site
			{
				OFFSET 0.000000 0.000000 0.186142
			}
		}
		JOINT arm.upper.left
		{
			OFFSET 0.158953 0.000000 0.273984
			CHANNELS 6 Xposition Yposition Zposition Xrotation Yrotation Zrotation
			JOINT arm.lower.left
			{
				OFFSET 0.004183 0.000000 -0.184050
				CHANNELS 3 Xrotation Yrotation Zrotation
				End Site
				{
					OFFSET -0.004183 0.000000 -0.177776
				}
			}
		}
		JOINT arm.upper.right
		{
			OFFSET -0.158953 0.000000 0.273984
			CHANNELS 6 Xposition Yposition Zposition Xrotation Yrotation Zrotation
			JOINT arm.lower.right
			{
				OFFSET -0.004183 0.000000 -0.184050
				CHANNELS 3 Xrotation Yrotation Zrotation
				End Site
				{
					OFFSET 0.004183 0.000000 -0.177776
				}
			}
		}
	}
	JOINT leg.upper.left
	{
		OFFSET 0.075293 0.000000 0.385861
		CHANNELS 6 Xposition Yposition Zposition Xrotation Yrotation Zrotation
		JOINT leg.lower.left
		{
			OFFSET 0.000000 0.000000 -0.188233
			CHANNELS 3 Xrotation Yrotation Zrotation
			End Site
			{
				OFFSET 0.000000 0.000000 -0.196599
			}
		}
	}
	JOINT leg.upper.right
	{
		OFFSET -0.075293 0.000000 0.385861
		CHANNELS 6 Xposition Yposition Zposition Xrotation Yrotation Zrotation
		JOINT leg.lower.right
		{
			OFFSET 0.000000 0.000000 -0.188233
			CHANNELS 3 Xrotation Yrotation Zrotation
			End Site
			{
				OFFSET 0.000000 0.000000 -0.196599
			}
		}
	}
}
MOTION
Frames: 20
Frame Time: 0.041667
0.000000 0.000000 0.000000 -0.000000 0.000000 -0.000000 -0.000000 0.000000 -0.000000 -0.000000 0.000000 -0.000000 0.158953 0.000000 0.273984 -0.000000 0.000385 -0.000001 0.000000 0.000000 -0.000000 -0.158953 0.000000 0.273984 -0.000000 0.001870 0.000006 -91.162808 0.000866 -0.001658 0.075293 0.000000 0.385861 -0.000000 0.000000 -0.000000 -0.000000 0.000000 0.000000 -0.075293 0.000000 0.385861 -0.000000 -0.000000 0.000000 0.000000 0.000000 -0.000000 
0.000000 0.000000 0.000000 -0.000000 0.000000 -0.000000 -0.000000 0.000000 -3.456844 -0.000000 0.000000 -0.000000 0.158953 0.000000 0.273984 -0.000000 0.000385 -0.000000 -0.000000 0.000000 0.000000 -0.158953 0.000000 0.273984 -0.000000 0.001870 0.000006 -90.007768 -3.091245 -3.077461 0.075293 0.000000 0.385861 -0.000000 0.000000 -0.000000 -0.000000 0.000000 0.000000 -0.075293 0.000000 0.385861 -0.000000 -0.000000 0.000000 0.000000 0.000000 -0.000000 
0.000000 0.000000 0.000000 -0.000000 0.000000 -0.000000 -0.000000 0.000000 -12.539547 -0.000000 0.000000 -0.000000 0.158953 0.000000 0.273984 -0.000000 0.000385 -0.000001 0.000000 0.000000 -0.000000 -0.158953 0.000000 0.273984 -0.000000 0.001870 0.000006 -87.092705 -11.539634 -10.923387 0.075293 0.000000 0.385861 -0.000000 0.000000 -0.000000 -0.000000 0.000000 0.000000 -0.075293 0.000000 0.385861 -0.000000 -0.000000 0.000000 0.000000 0.000000 -0.000000 
0.000000 0.000000 0.000000 -0.000000 0.000000 -0.000000 -0.000000 0.000000 -21.623202 -0.000000 0.000000 -0.000000 0.158953 0.000000 0.273984 -0.000000 0.000385 -0.000000 0.000000 0.000000 0.000001 -0.158953 0.000000 0.273984 -0.000000 0.001870 0.000005 -83.501644 -20.591378 -18.359012 0.075293 0.000000 0.385861 -0.000000 0.000000 -0.000000 -0.000000 0.000000 0.000000 -0.075293 0.000000 0.385861 -0.000000 -0.000000 0.000000 0.000000 0.000000 -0.000000 
0.000000 0.000000 0.000000 -0.000000 0.000000 -0.000000 -0.000000 0.000000 -25.146456 -0.000000 0.000000 -0.000000 0.158953 0.000000 0.273984 -0.000000 0.000385 -0.000002 0.000000 -0.000000 -0.000003 -0.158953 0.000000 0.273984 -0.000000 0.001870 0.000007 -78.706374 -24.914956 -20.513691 0.075293 0.000000 0.385861 -0.000000 0.000000 -0.000000 -0.000000 0.000000 0.000000 -0.075293 0.000000 0.385861 -0.000000 -0.000000 0.000000 0.000000 0.000000 -0.000000 
0.000000 0.000000 0.000000 -0.000000 0.000000 -0.000000 -0.000000 0.000000 -23.606058 -0.000000 0.000000 -0.000000 0.158953 0.000000 0.273984 0.225815 -0.101254 0.003229 0.009486 -0.069747 -0.002162 -0.158953 0.000000 0.273984 -1.978711 0.947905 -0.160703 -71.797562 -25.414946 -18.599409 0.075293 0.000000 0.385861 -0.000000 0.000000 -0.000000 -0.000000 0.000000 0.000000 -0.075293 0.000000 0.385861 -0.000000 -0.000000 0.000000 0.000000 0.000000 -0.000000 
0.000000 0.000000 0.000000 -0.000000 0.000000 -0.000000 -0.000000 0.000000 -18.666472 -0.000000 0.000000 -0.000000 0.158953 0.000000 0.273984 0.903589 -0.406208 0.015322 0.037930 -0.279019 -0.008574 -0.158953 0.000000 0.273984 -8.081639 3.895516 -0.450195 -62.498854 -24.190684 -14.994729 0.075293 0.000000 0.385861 -0.000000 0.000000 -0.000000 -0.000000 0.000000 0.000000 -0.075293 0.000000 0.385861 -0.000000 -0.000000 0.000000 0.000000 0.000000 -0.000000 
0.000000 0.000000 0.000000 -0.000000 0.000000 -0.000000 -0.000000 0.000000 -10.458123 -0.000000 0.000000 -0.000000 0.158953 0.000000 0.273984 1.992637 -0.895746 0.042294 0.083558 -0.615061 -0.018660 -0.158953 0.000000 0.273984 -18.411427 8.874647 -0.222531 -51.509858 -20.783386 -10.433940 0.075293 0.000000 0.385861 -0.000000 0.000000 -0.000000 -0.000000 0.000000 0.000000 -0.075293 0.000000 0.385861 -0.000000 -0.000000 0.000000 0.000000 0.000000 -0.000000 
0.000000 0.000000 0.000000 -0.000000 0.000000 -0.000000 -0.000000 0.000000 0.245863 -0.000000 0.000000 -0.000000 0.158953 0.000000 0.273984 3.379310 -1.517896 0.090066 0.141525 -1.042578 -0.031104 -0.158953 0.000000 0.273984 -32.507391 15.286660 1.510129 -40.152107 -15.249572 -6.080630 0.075293 0.000000 0.385861 -0.000000 0.000000 -0.000000 -0.000000 0.000000 0.000000 -0.075293 0.000000 0.385861 -0.000000 -0.000000 0.000000 0.000000 0.000000 -0.000000 
0.000000 0.000000 0.000000 -0.000000 0.000000 -0.000000 -0.000000 0.000000 11.879287 -0.000000 0.000000 -0.000001 0.158953 0.000000 0.273984 4.876789 -2.187741 0.158498 0.203972 -1.503844 -0.044047 -0.158953 0.000000 0.273984 -48.830668 21.600212 5.353850 -29.837306 -8.505302 -2.898131 0.075293 0.000000 0.385861 -0.000000 0.000000 -0.000000 -0.000000 0.000000 0.000000 -0.075293 0.000000 0.385861 -0.000000 -0.000000 0.000000 0.000000 0.000000 -0.000000 
0.000000 0.000000 0.000000 -0.000000 0.000000 -0.000000 -0.000000 0.000000 22.518102 -0.000000 0.000000 -0.000000 0.158953 0.000000 0.273984 6.265893 -2.806692 0.237557 0.261773 -1.931387 -0.055598 -0.158953 -0.000000 0.273984 -64.675942 26.199026 10.582097 -21.522105 -1.977131 -1.129474 0.075293 0.000000 0.385861 -0.000000 0.000000 -0.000000 -0.000000 0.000000 0.000000 -0.075293 0.000000 0.385861 -0.000000 -0.000000 0.000000 0.000000 0.000000 -0.000000 
0.000000 0.000000 0.000000 -0.000000 0.000000 -0.000000 -0.000000 0.000000 30.657786 -0.000000 0.000000 -0.000000 0.158953 0.000000 0.273984 7.358489 -3.291555 0.310226 0.307157 -2.267465 -0.064378 -0.158953 0.000000 0.273984 -77.219503 28.667708 15.462298 -15.620042 3.147196 -0.413092 0.075293 0.000000 0.385861 -0.000000 0.000000 -0.000000 -0.000000 0.000000 0.000000 -0.075293 0.000000 0.385861 -0.000000 -0.000000 0.000000 0.000000 0.000000 -0.000000 
0.000000 0.000000 0.000000 -0.000000 0.000000 -0.000000 -0.000000 0.000000 35.589384 -0.000000 0.000000 -0.000000 0.158953 0.000000 0.273984 8.039197 -3.592641 0.360144 0.335400 -2.476768 -0.069711 -0.158953 0.000000 0.273984 -84.885256 29.660110 18.659226 -12.184733 6.285187 -0.227142 0.075293 0.000000 0.385861 -0.000000 0.000000 -0.000000 -0.000000 0.000000 0.000000 -0.075293 0.000000 0.385861 -0.000000 -0.000000 0.000000 0.000000 0.000000 -0.000000 
0.000000 0.000000 0.000000 -0.000000 0.000000 -0.000000 -0.000000 0.000000 37.205844 -0.000000 0.000000 -0.000000 0.158953 0.000000 0.273984 8.266115 -3.692827 0.377575 0.344810 -2.546526 -0.071461 -0.158953 0.000000 0.273984 -87.394634 29.900195 19.730115 -11.084127 7.318023 -0.205032 0.075293 0.000000 0.385861 -0.000000 0.000000 -0.000000 -0.000000 0.000000 0.000000 -0.075293 0.000000 0.385861 -0.000000 -0.000000 0.000000 0.000000 0.000000 -0.000000 
0.000000 0.000000 0.000000 -0.000000 0.000000 -0.000000 -0.000000 0.000000 34.940710 -0.000000 0.000000 -0.000000 0.158953 0.000000 0.273984 7.754451 -3.466792 0.338823 0.323590 -2.389222 -0.067491 -0.158953 0.000000 0.273984 -81.701029 29.295313 17.316126 -15.606426 6.957746 0.079658 0.075293 0.000000 0.385861 -0.000000 0.000000 -0.000000 -0.000000 0.000000 0.000000 -0.075293 0.000000 0.385861 -0.000000 -0.000000 0.000000 0.000000 0.000000 -0.000000 
0.000000 0.000000 0.000000 -0.000000 0.000000 -0.000000 -0.000000 0.000000 28.280952 -0.000000 0.000000 -0.000000 0.158953 0.000000 0.273984 6.265893 -2.806692 0.237559 0.261772 -1.931387 -0.055598 -0.158953 0.000000 0.273984 -64.675942 26.199024 10.582096 -29.334382 5.741368 0.757598 0.075293 0.000000 0.385861 -0.000000 0.000000 -0.000000 -0.000000 0.000000 0.000000 -0.075293 0.000000 0.385861 -0.000000 -0.000000 0.000000 0.000000 0.000000 -0.000000 
0.000000 0.000000 0.000000 -0.000000 0.000000 -0.000000 -0.000000 0.000000 18.602920 -0.000000 0.000000 -0.000000 0.158953 0.000000 0.273984 4.127879 -1.853043 0.122091 0.172760 -1.273210 -0.037635 -0.158953 0.000000 0.273984 -40.538320 18.573403 3.176457 -49.974780 3.693017 1.187816 0.075293 0.000000 0.385861 -0.000000 0.000000 -0.000000 -0.000000 0.000000 0.000000 -0.075293 0.000000 0.385861 -0.000000 -0.000000 0.000000 0.000000 0.000000 -0.000000 
0.000000 0.000000 0.000000 -0.000000 0.000000 -0.000000 -0.000000 0.000000 8.924898 -0.000000 0.000000 -0.000000 0.158953 0.000000 0.273984 1.992638 -0.895747 0.042295 0.083559 -0.615061 -0.018660 -0.158953 0.000000 0.273984 -18.411439 8.874650 -0.222531 -70.556640 1.625735 0.868022 0.075293 0.000000 0.385861 -0.000000 0.000000 -0.000000 -0.000000 0.000000 0.000000 -0.075293 0.000000 0.385861 -0.000000 -0.000000 0.000000 0.000000 0.000000 -0.000000 
0.000000 0.000000 0.000000 -0.000000 0.000000 -0.000000 -0.000000 0.000000 2.265125 -0.000000 0.000000 -0.000000 0.158953 0.000000 0.273984 0.509268 -0.228810 0.007848 0.021386 -0.157280 -0.004857 -0.158953 0.000000 0.273984 -4.500960 2.162108 -0.318304 -84.186043 0.375802 0.260715 0.075293 0.000000 0.385861 -0.000000 0.000000 -0.000000 -0.000000 0.000000 0.000000 -0.075293 0.000000 0.385861 -0.000000 -0.000000 0.000000 0.000000 0.000000 -0.000000 
0.000000 0.000000 0.000000 -0.000000 0.000000 -0.000000 -0.000000 0.000000 -0.000000 -0.000000 0.000000 -0.000000 0.158953 0.000000 0.273984 -0.000000 0.000385 -0.000001 0.000000 0.000000 -0.000000 -0.158953 0.000000 0.273984 -0.000000 0.001870 0.000006 -88.667084 0.000829 -0.001623 0.075293 0.000000 0.385861 -0.000000 0.000000 -0.000000 -0.000000 0.000000 0.000000 -0.075293 0.000000 0.385861 -0.000000 -0.000000 0.000000 0.000000 0.000000 -0.000000 
